<svg version="1.1" id="svg2" sodipodi:docname="Vector File.ai" xmlns:inkscape="http://www.inkscape.org/namespaces/inkscape" xmlns:sodipodi="http://sodipodi.sourceforge.net/DTD/sodipodi-0.dtd" xmlns="http://www.w3.org/2000/svg" xmlns:svg="http://www.w3.org/2000/svg" viewBox="733.42 790.08 1199.85 763.13">  <defs id="defs6">    <clipPath clipPathUnits="userSpaceOnUse" id="clipPath16">      <path d="M 0,1800 H 2000 V 0 H 0 Z" id="path14"></path>    </clipPath>  </defs>  <sodipodi:namedview id="namedview4" pagecolor="#ffffff" bordercolor="#000000" borderopacity="0.25" inkscape:showpageshadow="2" inkscape:pageopacity="0.0" inkscape:pagecheckerboard="0" inkscape:deskcolor="#d1d1d1"></sodipodi:namedview>  <g id="g8" inkscape:groupmode="layer" inkscape:label="Vector File" transform="matrix(1.3333333,0,0,-1.3333333,0,2400)">    <g id="g10">      <g id="g12" clip-path="url(#clipPath16)">        <g id="g18" transform="translate(629.3787,785.0765)">          <path d="m 0,0 c 0,3.412 -0.55,6.533 -1.65,9.361 -1.1,2.829 -2.66,5.242 -4.681,7.241 -2.02,1.997 -4.434,3.546 -7.24,4.647 -2.806,1.099 -5.916,1.649 -9.327,1.649 h -38.591 v -61.556 h 38.591 c 3.411,0 6.521,0.549 9.327,1.65 2.806,1.099 5.22,2.649 7.24,4.647 2.021,1.997 3.581,4.4 4.681,7.206 1.1,2.805 1.65,5.937 1.65,9.395 z m 17.511,-15.76 c 0,-5.883 -1.022,-11.292 -3.064,-16.231 -2.044,-4.939 -4.862,-9.193 -8.453,-12.762 -3.592,-3.57 -7.858,-6.365 -12.796,-8.386 -4.94,-2.02 -10.304,-3.03 -16.096,-3.03 h -47.279 c -1.258,0 -2.425,0.224 -3.503,0.673 -1.077,0.449 -2.009,1.066 -2.795,1.852 -0.786,0.786 -1.403,1.718 -1.852,2.796 -0.449,1.077 -0.673,2.244 -0.673,3.502 v 78.933 c 0,1.212 0.224,2.357 0.673,3.434 0.449,1.078 1.066,2.021 1.852,2.829 0.786,0.808 1.718,1.437 2.795,1.886 1.078,0.448 2.245,0.673 3.503,0.673 h 47.279 c 5.792,0 11.156,-1.01 16.096,-3.03 4.938,-2.021 9.204,-4.816 12.796,-8.385 3.591,-3.57 6.409,-7.836 8.453,-12.797 C 16.489,11.236 17.511,5.836 17.511,0 Z" style="fill:#1b296d;fill-opacity:1;fill-rule:nonzero;stroke:none" id="path20"></path>        </g>        <g id="g22" transform="translate(760.5745,793.0238)">          <path d="m 0,0 c 0,-3.997 -0.495,-7.566 -1.481,-10.708 -0.989,-3.144 -2.324,-5.917 -4.008,-8.318 -1.683,-2.403 -3.626,-4.457 -5.825,-6.163 -2.201,-1.707 -4.502,-3.109 -6.904,-4.209 -2.402,-1.101 -4.827,-1.897 -7.273,-2.391 -2.448,-0.495 -4.749,-0.741 -6.904,-0.741 L 4.176,-64.116 h -27.074 l -36.504,31.586 h -12.594 v 17.511 h 39.601 c 2.199,0.179 4.209,0.64 6.028,1.381 1.818,0.741 3.389,1.739 4.714,2.997 1.324,1.256 2.346,2.771 3.065,4.546 0.717,1.773 1.077,3.805 1.077,6.095 v 11.045 c 0,0.987 -0.124,1.74 -0.37,2.256 -0.247,0.516 -0.562,0.898 -0.943,1.145 -0.382,0.246 -0.786,0.393 -1.213,0.438 -0.426,0.044 -0.819,0.067 -1.178,0.067 H -79 V -64.116 H -96.511 V 23.64 c 0,1.212 0.224,2.357 0.674,3.434 0.448,1.078 1.066,2.02 1.852,2.829 0.785,0.808 1.717,1.436 2.795,1.886 1.077,0.448 2.244,0.673 3.502,0.673 h 66.473 c 3.906,0 7.207,-0.707 9.901,-2.122 2.693,-1.414 4.882,-3.188 6.566,-5.32 1.684,-2.133 2.896,-4.435 3.637,-6.903 C -0.371,15.647 0,13.335 0,11.18 Z" style="fill:#1b296d;fill-opacity:1;fill-rule:nonzero;stroke:none" id="path24"></path>        </g>        <g id="g26" transform="translate(870.1511,793.1581)">          <path d="m 0,0 c 0,-3.997 -0.505,-7.566 -1.516,-10.708 -1.01,-3.144 -2.346,-5.917 -4.006,-8.318 -1.662,-2.402 -3.604,-4.456 -5.827,-6.162 -2.222,-1.707 -4.523,-3.11 -6.902,-4.209 -2.381,-1.101 -4.794,-1.898 -7.241,-2.392 -2.447,-0.494 -4.748,-0.74 -6.903,-0.74 h -7.071 V -64.25 h -17.646 v 31.721 h -7.004 c -2.155,0 -4.457,0.246 -6.904,0.74 -2.447,0.494 -4.872,1.291 -7.273,2.392 -2.402,1.099 -4.704,2.502 -6.903,4.209 -2.201,1.706 -4.142,3.76 -5.826,6.162 -1.684,2.401 -3.031,5.186 -4.041,8.352 -1.01,3.165 -1.516,6.723 -1.516,10.674 v 32.328 h 17.511 V 0 c 0,-2.29 0.36,-4.344 1.078,-6.162 0.718,-1.818 1.728,-3.379 3.031,-4.681 1.301,-1.303 2.884,-2.301 4.748,-2.997 1.862,-0.697 3.94,-1.044 6.23,-1.044 h 31.586 c 1.661,0.27 3.368,0.617 5.119,1.044 1.751,0.426 3.344,1.155 4.781,2.189 1.437,1.032 2.627,2.469 3.57,4.31 0.943,1.841 1.414,4.288 1.414,7.341 V 32.328 H 0 Z" style="fill:#1b296d;fill-opacity:1;fill-rule:nonzero;stroke:none" id="path28"></path>        </g>        <g id="g30" transform="translate(1016.0964,728.9076)">          <path d="m 0,0 h -63.173 c -1.617,0 -3.357,0.19 -5.22,0.572 -1.863,0.382 -3.704,0.977 -5.523,1.785 -1.818,0.809 -3.559,1.852 -5.219,3.132 -1.662,1.28 -3.132,2.828 -4.411,4.647 -1.28,1.818 -2.302,3.928 -3.065,6.331 -0.764,2.401 -1.145,5.107 -1.145,8.115 v 47.414 c 0,1.616 0.191,3.356 0.573,5.22 0.381,1.862 0.976,3.704 1.785,5.522 0.808,1.818 1.862,3.558 3.165,5.22 1.302,1.66 2.862,3.131 4.681,4.411 1.818,1.279 3.917,2.3 6.297,3.065 2.379,0.762 5.073,1.144 8.082,1.144 H 0 V 79.067 h -63.173 c -2.29,0 -4.041,-0.606 -5.253,-1.818 -1.213,-1.212 -1.819,-3.009 -1.819,-5.388 V 24.582 c 0,-2.246 0.617,-3.985 1.852,-5.219 1.234,-1.236 2.974,-1.852 5.22,-1.852 l 63.173,0 z" style="fill:#1b296d;fill-opacity:1;fill-rule:nonzero;stroke:none" id="path32"></path>        </g>        <g id="g34" transform="translate(1121.3625,728.9076)">          <path d="m 0,0 h -79.875 c -1.258,0 -2.425,0.224 -3.503,0.673 -1.078,0.449 -2.01,1.066 -2.795,1.852 -0.786,0.786 -1.404,1.718 -1.852,2.796 -0.449,1.077 -0.674,2.244 -0.674,3.502 v 87.755 h 17.511 V 17.511 l 71.188,0 z" style="fill:#1b296d;fill-opacity:1;fill-rule:nonzero;stroke:none" id="path36"></path>        </g>        <path d="m 1213.226,768.374 h -55.293 v 17.646 h 55.293 z m 7.88,-39.466 h -63.173 c -2.425,0 -5.074,0.426 -7.947,1.279 -2.874,0.852 -5.534,2.256 -7.981,4.209 -2.448,1.953 -4.49,4.49 -6.129,7.611 -1.639,3.12 -2.458,6.947 -2.458,11.483 v 63.173 c 0,1.212 0.224,2.357 0.674,3.435 0.448,1.078 1.065,2.02 1.852,2.829 0.785,0.808 1.717,1.436 2.795,1.885 1.077,0.449 2.244,0.674 3.501,0.674 h 78.866 v -17.511 h -70.178 V 753.49 c 0,-2.29 0.607,-4.041 1.819,-5.253 1.212,-1.213 2.986,-1.819 5.321,-1.819 h 63.038 z" style="fill:#1b296d;fill-opacity:1;fill-rule:nonzero;stroke:none" id="path38"></path>        <g id="g40" transform="translate(1253.7034,770.1254)">          <path d="M 0,0 H 61.557 V 37.85 H 30.778 c -0.539,0 -1.673,-0.079 -3.401,-0.236 C 25.648,37.456 23.65,37.063 21.383,36.436 19.115,35.806 16.725,34.841 14.21,33.54 11.695,32.237 9.383,30.441 7.273,28.152 5.163,25.862 3.423,23 2.054,19.564 0.684,16.13 0,11.964 0,7.071 Z m 79.067,-41.218 h -17.51 v 23.707 H 0 V -41.218 H -17.511 V 7.071 c 0,7.049 1.212,13.537 3.637,19.464 2.424,5.927 5.792,11.022 10.102,15.288 4.311,4.265 9.406,7.588 15.289,9.968 5.881,2.379 12.301,3.569 19.261,3.569 h 39.467 c 1.212,0 2.357,-0.225 3.435,-0.673 1.077,-0.449 2.02,-1.078 2.828,-1.886 0.808,-0.808 1.437,-1.751 1.886,-2.828 0.448,-1.078 0.673,-2.223 0.673,-3.435 z" style="fill:#1b296d;fill-opacity:1;fill-rule:nonzero;stroke:none" id="path42"></path>        </g>        <g id="g44" transform="translate(1449.6213,736.3832)">          <path d="M 0,0 C 0,-1.257 -0.236,-2.424 -0.707,-3.502 -1.179,-4.58 -1.808,-5.512 -2.593,-6.297 -3.379,-7.083 -4.31,-7.7 -5.388,-8.149 -6.465,-8.598 -7.61,-8.823 -8.823,-8.823 c -1.077,0 -2.166,0.202 -3.266,0.607 -1.101,0.404 -2.078,1.054 -2.93,1.952 L -79,60.547 V -7.476 h -17.511 v 89.103 c 0,1.795 0.505,3.423 1.515,4.883 1.011,1.458 2.301,2.547 3.873,3.266 1.661,0.674 3.367,0.842 5.119,0.505 1.751,-0.336 3.254,-1.156 4.512,-2.458 L -17.511,21.08 V 89.103 H 0 Z" style="fill:#1b296d;fill-opacity:1;fill-rule:nonzero;stroke:none" id="path46"></path>        </g>        <g id="g48" transform="translate(612.9827,654.5179)">          <path d="m 0,0 c 0,-2.254 -0.285,-4.28 -0.856,-6.081 -0.571,-1.8 -1.325,-3.388 -2.261,-4.763 -0.937,-1.376 -2.035,-2.546 -3.293,-3.512 -1.258,-0.966 -2.561,-1.756 -3.907,-2.371 -1.347,-0.615 -2.715,-1.068 -4.105,-1.361 -1.39,-0.293 -2.7,-0.439 -3.929,-0.439 h -44.034 v 11.415 h 44.034 c 2.195,0 3.899,0.643 5.115,1.931 1.214,1.288 1.821,3.014 1.821,5.181 0,1.054 -0.161,2.02 -0.482,2.897 -0.323,0.879 -0.784,1.64 -1.384,2.284 -0.599,0.643 -1.332,1.141 -2.195,1.492 -0.863,0.351 -1.821,0.527 -2.875,0.527 h -26.254 c -1.844,0 -3.834,0.329 -5.97,0.988 -2.137,0.658 -4.121,1.719 -5.949,3.183 -1.83,1.463 -3.352,3.38 -4.566,5.751 -1.215,2.371 -1.822,5.268 -1.822,8.692 0,3.425 0.607,6.315 1.822,8.671 1.214,2.356 2.736,4.273 4.566,5.751 1.828,1.478 3.812,2.547 5.949,3.205 2.136,0.659 4.126,0.988 5.97,0.988 H -5.751 V 33.015 h -38.854 c -2.166,0 -3.856,-0.659 -5.07,-1.976 -1.215,-1.317 -1.823,-3.059 -1.823,-5.225 0,-2.194 0.608,-3.929 1.823,-5.202 1.214,-1.273 2.904,-1.91 5.07,-1.91 h 26.254 0.087 c 1.23,-0.029 2.532,-0.197 3.908,-0.505 1.376,-0.307 2.744,-0.783 4.105,-1.426 1.361,-0.645 2.656,-1.457 3.885,-2.437 1.229,-0.98 2.32,-2.159 3.271,-3.534 C -2.144,9.424 -1.39,7.844 -0.834,6.058 -0.278,4.273 0,2.253 0,0" style="fill:#29abe2;fill-opacity:1;fill-rule:nonzero;stroke:none" id="path50"></path>        </g>        <g id="g52" transform="translate(693.1399,641.7426)">          <path d="M 0,0 C 0,-0.82 -0.147,-1.581 -0.439,-2.283 -0.732,-2.985 -1.142,-3.593 -1.668,-4.105 -2.195,-4.618 -2.81,-5.02 -3.512,-5.312 -4.215,-5.605 -4.961,-5.751 -5.751,-5.751 h -25.727 c -2.43,0 -4.888,0.263 -7.376,0.79 -2.488,0.526 -4.895,1.339 -7.222,2.436 -2.326,1.098 -4.515,2.495 -6.563,4.193 -2.049,1.697 -3.841,3.71 -5.378,6.037 -1.537,2.327 -2.744,4.989 -3.622,7.99 -0.878,2.999 -1.317,6.344 -1.317,10.032 v 31.478 h 11.414 V 25.727 c 0,-3.221 0.446,-5.942 1.34,-8.166 0.892,-2.225 2.026,-4.083 3.402,-5.576 1.375,-1.493 2.883,-2.664 4.522,-3.512 1.639,-0.849 3.197,-1.478 4.675,-1.888 1.478,-0.41 2.781,-0.666 3.908,-0.768 1.126,-0.103 1.866,-0.154 2.217,-0.154 h 20.063 V 57.205 H 0 Z" style="fill:#29abe2;fill-opacity:1;fill-rule:nonzero;stroke:none" id="path54"></path>        </g>        <g id="g56" transform="translate(778.1262,672.6058)">          <path d="m 0,0 c 0,-2.605 -0.322,-4.932 -0.966,-6.98 -0.644,-2.05 -1.514,-3.857 -2.612,-5.422 -1.098,-1.567 -2.364,-2.906 -3.798,-4.017 -1.434,-1.113 -2.935,-2.02 -4.499,-2.723 -1.567,-0.702 -3.147,-1.214 -4.742,-1.536 -1.596,-0.322 -3.095,-0.483 -4.5,-0.483 h -25.815 v 11.414 h 25.815 c 1.463,0.117 2.787,0.418 3.973,0.9 1.186,0.483 2.202,1.134 3.051,1.954 0.849,0.819 1.507,1.807 1.976,2.964 0.468,1.156 0.702,2.465 0.702,3.929 v 5.18 c -0.147,1.434 -0.454,2.751 -0.922,3.951 -0.468,1.201 -1.105,2.224 -1.91,3.074 -0.805,0.848 -1.777,1.514 -2.919,1.997 -1.141,0.484 -2.459,0.725 -3.951,0.725 h -25.727 c -1.522,0 -2.678,-0.396 -3.469,-1.186 -0.79,-0.79 -1.185,-1.931 -1.185,-3.424 v -46.932 h -11.414 v 46.932 c 0,2.926 0.534,5.414 1.602,7.463 1.068,2.049 2.4,3.702 3.995,4.962 1.595,1.258 3.329,2.173 5.203,2.743 1.873,0.571 3.6,0.856 5.18,0.856 h 25.815 c 2.575,0 4.888,-0.329 6.936,-0.987 2.049,-0.659 3.856,-1.537 5.422,-2.635 1.566,-1.097 2.898,-2.364 3.996,-3.797 1.097,-1.434 2.004,-2.935 2.721,-4.5 0.717,-1.567 1.237,-3.147 1.559,-4.742 C -0.161,8.085 0,6.585 0,5.18 Z" style="fill:#29abe2;fill-opacity:1;fill-rule:nonzero;stroke:none" id="path58"></path>        </g>        <path d="m 848.624,661.718 h -36.043 v 11.502 h 36.043 z m 5.137,-25.727 h -41.18 c -1.581,0 -3.308,0.278 -5.181,0.835 -1.873,0.555 -3.608,1.47 -5.202,2.743 -1.596,1.273 -2.927,2.926 -3.996,4.961 -1.068,2.034 -1.602,4.529 -1.602,7.486 v 41.18 c 0,0.79 0.146,1.537 0.439,2.239 0.292,0.703 0.695,1.317 1.207,1.844 0.512,0.527 1.12,0.936 1.823,1.229 0.702,0.293 1.462,0.439 2.282,0.439 h 51.41 v -11.414 h -45.746 v -35.517 c 0,-1.493 0.395,-2.635 1.185,-3.425 0.79,-0.79 1.946,-1.185 3.469,-1.185 h 41.092 z" style="fill:#29abe2;fill-opacity:1;fill-rule:nonzero;stroke:none" id="path60"></path>        <g id="g62" transform="translate(936.6838,677.786)">          <path d="m 0,0 c 0,-2.605 -0.322,-4.932 -0.966,-6.98 -0.644,-2.049 -1.514,-3.857 -2.612,-5.422 -1.097,-1.566 -2.364,-2.906 -3.797,-4.017 -1.435,-1.113 -2.935,-2.027 -4.5,-2.744 -1.566,-0.718 -3.147,-1.237 -4.742,-1.559 -1.595,-0.322 -3.095,-0.483 -4.5,-0.483 l 23.839,-20.59 h -17.649 l -23.795,20.59 h -8.21 V -9.79 h 25.815 c 1.433,0.117 2.744,0.417 3.93,0.9 1.185,0.483 2.209,1.134 3.073,1.953 0.863,0.819 1.529,1.808 1.997,2.964 0.468,1.156 0.702,2.48 0.702,3.973 v 7.2 c 0,0.644 -0.081,1.134 -0.241,1.471 -0.161,0.336 -0.366,0.585 -0.615,0.746 -0.249,0.161 -0.512,0.256 -0.79,0.286 -0.278,0.028 -0.534,0.044 -0.768,0.044 H -51.498 V -41.795 H -62.912 V 15.41 c 0,0.79 0.146,1.537 0.439,2.239 0.292,0.703 0.695,1.317 1.207,1.844 0.512,0.527 1.12,0.936 1.822,1.229 0.703,0.293 1.464,0.439 2.283,0.439 h 43.332 c 2.546,0 4.698,-0.461 6.454,-1.383 1.755,-0.922 3.182,-2.078 4.28,-3.468 1.098,-1.391 1.888,-2.891 2.371,-4.5 C -0.242,10.2 0,8.693 0,7.288 Z" style="fill:#29abe2;fill-opacity:1;fill-rule:nonzero;stroke:none" id="path64"></path>        </g>        <g id="g66" transform="translate(1051.2512,635.9911)">          <path d="m 0,0 h -41.18 c -1.054,0 -2.188,0.124 -3.403,0.373 -1.214,0.249 -2.415,0.637 -3.6,1.164 -1.185,0.526 -2.319,1.207 -3.402,2.041 -1.083,0.835 -2.041,1.844 -2.875,3.029 -0.835,1.185 -1.501,2.561 -1.998,4.127 -0.499,1.565 -0.747,3.329 -0.747,5.29 v 30.908 c 0,1.053 0.124,2.188 0.373,3.402 0.249,1.214 0.637,2.415 1.164,3.6 0.527,1.185 1.214,2.319 2.064,3.402 0.848,1.083 1.865,2.042 3.05,2.876 1.186,0.834 2.554,1.499 4.106,1.998 1.551,0.497 3.306,0.746 5.268,0.746 H 0 V 51.542 h -41.18 c -1.493,0 -2.634,-0.396 -3.424,-1.186 -0.791,-0.79 -1.186,-1.961 -1.186,-3.512 v -30.82 c 0,-1.463 0.402,-2.597 1.207,-3.402 0.805,-0.805 1.939,-1.207 3.403,-1.207 H 0 Z" style="fill:#29abe2;fill-opacity:1;fill-rule:nonzero;stroke:none" id="path68"></path>        </g>        <path d="m 1122.804,661.718 h -36.044 v 11.502 h 36.044 z m 5.137,-25.727 h -41.181 c -1.58,0 -3.308,0.278 -5.181,0.835 -1.873,0.555 -3.607,1.47 -5.202,2.743 -1.596,1.273 -2.927,2.926 -3.995,4.961 -1.069,2.034 -1.602,4.529 -1.602,7.486 v 41.18 c 0,0.79 0.146,1.537 0.439,2.239 0.292,0.703 0.695,1.317 1.207,1.844 0.512,0.527 1.119,0.936 1.822,1.229 0.702,0.293 1.463,0.439 2.283,0.439 h 51.41 v -11.414 h -45.747 v -35.517 c 0,-1.493 0.395,-2.635 1.186,-3.425 0.79,-0.79 1.946,-1.185 3.468,-1.185 h 41.093 z" style="fill:#29abe2;fill-opacity:1;fill-rule:nonzero;stroke:none" id="path70"></path>        <g id="g72" transform="translate(1210.863,640.8641)">          <path d="m 0,0 c 0,-0.819 -0.154,-1.58 -0.461,-2.283 -0.307,-0.702 -0.718,-1.31 -1.229,-1.822 -0.513,-0.512 -1.12,-0.914 -1.822,-1.207 -0.703,-0.292 -1.449,-0.439 -2.239,-0.439 -0.703,0 -1.413,0.131 -2.129,0.395 -0.718,0.263 -1.354,0.688 -1.91,1.273 L -51.498,39.468 V -4.873 H -62.912 V 53.21 c 0,1.17 0.329,2.231 0.988,3.183 0.658,0.95 1.499,1.661 2.524,2.129 1.083,0.439 2.195,0.549 3.337,0.33 1.141,-0.22 2.122,-0.754 2.941,-1.603 L -11.415,13.742 V 58.083 H 0 Z" style="fill:#29abe2;fill-opacity:1;fill-rule:nonzero;stroke:none" id="path74"></path>        </g>        <g id="g76" transform="translate(1290.0105,687.5326)">          <path d="M 0,0 H -25.156 V -51.542 H -36.571 V 0 h -25.2 V 11.415 H 0 Z" style="fill:#29abe2;fill-opacity:1;fill-rule:nonzero;stroke:none" id="path78"></path>        </g>        <path d="m 1359.148,661.718 h -36.044 v 11.502 h 36.044 z m 5.136,-25.727 h -41.18 c -1.58,0 -3.308,0.278 -5.18,0.835 -1.873,0.555 -3.608,1.47 -5.203,2.743 -1.595,1.273 -2.927,2.926 -3.995,4.961 -1.069,2.034 -1.602,4.529 -1.602,7.486 v 41.18 c 0,0.79 0.146,1.537 0.439,2.239 0.292,0.703 0.695,1.317 1.207,1.844 0.512,0.527 1.119,0.936 1.822,1.229 0.702,0.293 1.463,0.439 2.283,0.439 h 51.409 v -11.414 h -45.746 v -35.517 c 0,-1.493 0.395,-2.635 1.185,-3.425 0.791,-0.79 1.947,-1.185 3.469,-1.185 h 41.092 z" style="fill:#29abe2;fill-opacity:1;fill-rule:nonzero;stroke:none" id="path80"></path>        <g id="g82" transform="translate(1447.2073,677.786)">          <path d="m 0,0 c 0,-2.605 -0.322,-4.932 -0.966,-6.98 -0.644,-2.049 -1.514,-3.857 -2.612,-5.422 -1.098,-1.566 -2.364,-2.906 -3.797,-4.017 -1.435,-1.113 -2.935,-2.027 -4.501,-2.744 -1.566,-0.718 -3.146,-1.237 -4.741,-1.559 -1.596,-0.322 -3.095,-0.483 -4.5,-0.483 l 23.839,-20.59 h -17.649 l -23.795,20.59 h -8.21 V -9.79 h 25.815 c 1.433,0.117 2.743,0.417 3.929,0.9 1.186,0.483 2.209,1.134 3.073,1.953 0.864,0.819 1.53,1.808 1.998,2.964 0.468,1.156 0.702,2.48 0.702,3.973 v 7.2 c 0,0.644 -0.081,1.134 -0.241,1.471 -0.161,0.336 -0.366,0.585 -0.615,0.746 -0.249,0.161 -0.512,0.256 -0.79,0.286 -0.278,0.028 -0.534,0.044 -0.769,0.044 H -51.498 V -41.795 H -62.912 V 15.41 c 0,0.79 0.146,1.537 0.439,2.239 0.292,0.703 0.695,1.317 1.207,1.844 0.512,0.527 1.12,0.936 1.822,1.229 0.703,0.293 1.464,0.439 2.283,0.439 h 43.331 c 2.547,0 4.698,-0.461 6.455,-1.383 1.755,-0.922 3.182,-2.078 4.28,-3.468 1.097,-1.391 1.887,-2.891 2.371,-4.5 C -0.242,10.2 0,8.693 0,7.288 Z" style="fill:#29abe2;fill-opacity:1;fill-rule:nonzero;stroke:none" id="path84"></path>        </g>        <g id="g86" transform="translate(1009.6482,1098.6327)">          <path d="m 0,0 c 0,1.521 0.006,3.043 0.011,4.564 0.008,2.283 0.016,4.567 0.006,6.847 -0.026,6.864 -5.373,12.637 -12.228,13.273 l -0.652,0.051 c -5.223,0.43 -10.294,2.156 -14.689,5 -4.418,2.859 -8.101,6.799 -10.652,11.398 -2.609,4.704 -3.989,10.059 -3.989,15.486 0,17.64 14.351,31.992 31.992,31.992 9.258,0 18.057,-4.009 24.142,-10.999 3.659,-4.204 10.033,-4.649 14.236,-0.987 4.203,3.658 4.645,10.032 0.986,14.235 -9.918,11.396 -24.267,17.932 -39.364,17.932 -28.768,0 -52.173,-23.406 -52.173,-52.173 0,-8.843 2.256,-17.582 6.522,-25.274 4.153,-7.487 10.148,-13.903 17.337,-18.553 5.583,-3.613 11.833,-6.121 18.348,-7.389 C -20.168,5.147 -20.169,4.891 -20.17,4.635 -20.175,3.09 -20.18,1.544 -20.18,0 V -12.965 H 0 Z" style="fill:#1b296d;fill-opacity:1;fill-rule:nonzero;stroke:none" id="path88"></path>        </g>        <g id="g90" transform="translate(1066.5774,1024.7689)">          <path d="m 0,0 -201.563,-119.753 c -12.604,-7.488 -27.014,-11.446 -41.674,-11.446 H -357.111 L -66.582,44.151 0.013,3.96 C 0.939,3.401 1.131,2.573 1.129,1.976 1.127,1.379 0.929,0.552 0,0 m 21.129,1.906 c 0.027,7.917 -4.003,15.086 -10.781,19.177 l -76.93,46.428 -362.371,-218.71 h 185.716 c 18.254,0 36.197,4.928 51.889,14.252 L 10.215,-17.194 c 6.806,4.043 10.886,11.183 10.914,19.1" style="fill:#1b296d;fill-opacity:1;fill-rule:nonzero;stroke:none" id="path92"></path>        </g>        <g id="g94" transform="translate(1132.6174,873.5702)">          <path d="m 0,0 h 229.758 l -125.25,75.6 -19.43,11.72 -0.09,0.06 -18.85,11.38 -0.57,0.34 L 46.058,87.51 -67.562,20 h -38.02 -72.1 l 169.11,100.48 27.938,-16.862 19.509,11.59 -47.367,28.592 -5.15,-3.06 L -219.212,18.6 -250.512,0 h 111.26 38.02 1.15 38.01 0.18 l 33.67,20 h -0.19 l 93.89,55.79 0.1,-0.06 L 84.998,64.01 157.918,20 H 33.66 Z" style="fill:#29abe2;fill-opacity:1;fill-rule:nonzero;stroke:none" id="path96"></path>        </g>      </g>    </g>  </g></svg>