<?xml version="1.0" standalone="no"?>
<!DOCTYPE svg PUBLIC "-//W3C//DTD SVG 20010904//EN"
 "http://www.w3.org/TR/2001/REC-SVG-20010904/DTD/svg10.dtd">
<svg version="1.0" xmlns="http://www.w3.org/2000/svg"
 width="1200.000000pt" height="1200.000000pt" viewBox="0 0 1200.000000 1200.000000"
 preserveAspectRatio="xMidYMid meet">
<metadata>
Created by potrace 1.14, written by Peter Selinger 2001-2017
</metadata>
<g transform="translate(0.000000,1200.000000) scale(0.100000,-0.100000)"
fill="#000000" stroke="none">
<path d="M5845 9795 c-33 -9 -67 -18 -75 -22 -8 -3 -24 -8 -34 -10 -11 -2 -27
-10 -36 -18 -9 -8 -22 -15 -28 -15 -31 0 -232 -169 -232 -195 0 -3 -8 -14 -18
-25 -26 -28 -83 -146 -99 -205 -31 -117 -34 -222 -8 -355 29 -150 160 -331
307 -423 49 -31 160 -81 183 -83 6 0 20 -4 33 -8 22 -7 23 -10 20 -128 l-3
-121 -40 -24 c-22 -13 -47 -26 -55 -30 -8 -4 -17 -9 -20 -13 -3 -4 -32 -22
-65 -42 -33 -19 -233 -139 -443 -266 -211 -128 -388 -232 -392 -232 -5 0 -10
-3 -12 -8 -2 -6 -51 -36 -170 -107 -10 -5 -66 -39 -125 -75 -59 -36 -115 -69
-125 -75 -9 -5 -45 -27 -80 -48 -35 -20 -218 -131 -408 -246 -443 -269 -503
-305 -515 -310 -5 -2 -17 -9 -25 -16 -8 -7 -35 -24 -60 -37 -37 -21 -104 -61
-280 -168 -8 -5 -199 -120 -425 -256 -225 -136 -432 -262 -460 -279 -101 -64
-257 -155 -266 -155 -5 0 -9 -4 -9 -10 0 -5 -4 -10 -9 -10 -5 0 -96 -53 -202
-118 -107 -65 -260 -158 -341 -207 -82 -48 -148 -91 -148 -94 0 -8 2485 -5
2575 3 39 4 81 9 95 12 14 2 39 7 55 10 69 11 155 37 239 71 103 41 123 51
311 163 77 45 154 90 170 100 17 9 72 43 124 74 51 31 97 56 101 56 5 0 10 4
12 8 2 4 23 19 48 33 53 30 262 153 305 180 17 10 48 28 70 40 22 12 47 27 55
34 8 6 35 23 60 36 25 13 47 26 50 29 5 5 13 10 89 52 20 11 47 28 61 37 14
10 56 35 94 57 37 21 76 44 85 49 9 6 39 23 66 40 28 16 59 35 70 42 11 7 31
18 45 25 14 7 27 15 30 18 11 12 199 120 209 120 6 0 11 4 11 9 0 5 10 13 23
17 12 4 24 10 27 13 9 12 248 151 259 151 6 0 11 4 11 8 0 4 19 18 43 30 23
12 56 31 72 42 17 11 37 23 45 27 77 39 370 222 394 247 57 56 81 120 81 211
-1 70 -5 87 -30 134 -17 30 -50 71 -76 90 -36 29 -201 132 -296 186 -10 6 -47
28 -83 50 -85 53 -82 51 -196 118 -55 32 -119 72 -144 88 -25 16 -52 32 -61
36 -8 5 -45 26 -82 48 l-67 40 0 75 c-1 41 -1 123 -1 181 0 94 -3 110 -25 147
-32 53 -79 81 -157 92 -36 5 -86 19 -113 31 -27 13 -51 23 -54 23 -18 3 -97
77 -130 121 -166 225 -70 545 194 648 76 29 212 31 285 4 64 -24 125 -63 171
-109 61 -61 118 -75 177 -44 54 27 81 86 69 149 -16 85 -236 247 -371 273 -11
2 -31 7 -45 10 -56 14 -226 13 -285 -1z m355 -1952 c107 -65 197 -121 198
-125 2 -5 9 -8 14 -8 6 0 47 -22 90 -50 43 -27 80 -50 82 -50 2 0 73 -42 157
-94 173 -105 186 -121 122 -156 -21 -11 -51 -29 -68 -40 -16 -11 -39 -24 -50
-30 -11 -6 -29 -16 -40 -23 -29 -17 -117 -70 -137 -82 -22 -13 -145 -86 -177
-105 -14 -8 -71 -42 -126 -75 -55 -32 -224 -132 -375 -222 -151 -90 -282 -167
-290 -172 -33 -21 -176 -106 -195 -117 -11 -6 -66 -38 -123 -72 -56 -34 -107
-62 -112 -62 -6 0 -10 -4 -10 -10 0 -5 -4 -10 -9 -10 -5 0 -38 -18 -72 -40
-35 -21 -86 -52 -114 -68 -27 -15 -122 -71 -210 -124 -503 -299 -597 -354
-661 -384 -78 -37 -226 -79 -319 -90 -48 -6 -1645 -13 -1645 -7 0 1 61 39 95
58 11 7 73 44 138 83 65 40 122 72 127 72 4 0 10 3 12 8 2 4 108 70 235 147
128 77 250 150 270 163 21 12 53 30 71 39 17 9 32 20 32 24 0 4 11 10 25 13
14 4 25 11 25 16 0 6 4 10 8 10 7 0 252 146 626 373 52 31 97 57 100 57 3 0
14 7 23 15 10 8 22 15 27 14 5 0 12 3 15 8 5 9 252 160 311 191 14 7 32 20 41
28 8 8 20 14 26 14 6 0 21 9 35 19 13 11 42 29 63 40 22 12 91 53 153 91 63
39 118 70 123 70 5 0 9 3 9 8 0 4 10 12 23 18 12 6 162 95 332 199 171 103
324 196 340 205 17 10 136 82 265 160 129 78 242 145 250 148 8 3 24 14 34 24
11 10 25 18 30 18 6 0 99 -53 206 -117z"/>
<path d="M7569 7225 c-47 -29 -105 -63 -130 -77 -24 -14 -97 -57 -162 -97 -65
-39 -123 -71 -128 -71 -5 0 -9 -4 -9 -9 0 -5 -11 -12 -25 -15 -14 -4 -25 -11
-25 -16 0 -6 -4 -10 -10 -10 -5 0 -98 -53 -207 -118 -265 -158 -396 -236 -408
-242 -5 -3 -73 -43 -150 -89 -77 -46 -153 -92 -170 -101 -37 -21 -264 -157
-285 -170 -8 -5 -31 -19 -50 -30 -19 -11 -42 -25 -50 -30 -64 -41 -304 -180
-310 -180 -5 0 -15 -6 -22 -13 -12 -12 -122 -78 -193 -116 -16 -9 -32 -18 -35
-21 -12 -12 -90 -60 -98 -60 -5 0 -20 -8 -33 -18 -13 -10 -44 -30 -69 -43 -25
-13 -47 -27 -50 -30 -3 -4 -23 -16 -45 -28 -22 -12 -47 -25 -55 -31 -47 -29
-182 -110 -185 -110 -2 0 -40 -22 -84 -50 -44 -27 -85 -50 -91 -50 -5 0 -10
-4 -10 -9 0 -5 -10 -11 -22 -14 -12 -4 -19 -9 -16 -13 5 -5 2352 -9 2483 -5
11 1 81 37 154 81 74 44 135 80 136 80 2 0 51 30 111 66 60 37 118 72 129 78
21 12 255 152 290 173 11 7 28 16 38 19 9 3 17 10 17 15 0 5 4 9 10 9 7 0 364
207 430 250 8 5 35 21 60 35 25 14 111 65 192 114 135 82 149 88 173 78 13 -7
25 -15 25 -19 0 -5 5 -8 11 -8 6 0 30 -13 53 -28 22 -15 82 -52 131 -80 114
-67 118 -70 188 -114 32 -21 60 -38 63 -38 2 0 75 -43 161 -96 87 -53 174
-106 195 -118 136 -79 366 -222 362 -225 -3 -3 -372 -5 -822 -6 l-817 0 -61
-38 c-34 -20 -65 -37 -68 -37 -4 0 -12 -5 -19 -10 -21 -18 -178 -110 -188
-110 -5 0 -9 -4 -9 -8 0 -5 -18 -17 -40 -27 -22 -10 -40 -23 -40 -29 0 -8 408
-11 1470 -10 808 1 1476 4 1484 7 8 3 17 3 20 0 3 -4 19 -7 35 -7 27 -1 28 0
13 14 -9 8 -28 21 -42 27 -14 7 -32 17 -40 23 -8 5 -60 37 -115 70 -55 34
-107 65 -115 70 -8 5 -40 24 -70 42 -30 17 -56 35 -58 40 -2 4 -8 8 -13 8 -5
0 -28 12 -52 27 -23 15 -44 28 -47 28 -3 0 -16 8 -30 17 -66 44 -344 208 -352
208 -4 0 -8 3 -8 8 0 4 -29 23 -65 42 -36 19 -65 38 -65 43 0 4 -4 7 -10 7 -5
0 -80 43 -166 95 -87 52 -161 95 -166 95 -4 0 -8 4 -8 10 0 5 -11 12 -25 16
-14 3 -25 10 -25 15 0 5 -5 9 -10 9 -6 0 -29 12 -53 28 -23 15 -46 29 -52 32
-5 3 -77 46 -158 95 -82 50 -163 98 -180 108 -18 11 -80 48 -138 83 l-106 65
-129 -77 c-182 -108 -395 -235 -419 -248 -11 -6 -39 -24 -62 -39 -24 -15 -44
-27 -47 -27 -2 0 -74 -43 -161 -95 -86 -52 -158 -95 -160 -95 -2 0 -40 -22
-84 -50 -44 -27 -85 -50 -90 -50 -5 0 -11 -3 -13 -7 -4 -10 -57 -42 -80 -50
-10 -3 -18 -9 -18 -14 0 -5 -6 -9 -14 -9 -8 0 -21 -6 -28 -12 -19 -18 -48 -36
-77 -48 -13 -6 -35 -19 -50 -29 -14 -10 -42 -28 -61 -39 -19 -11 -91 -53 -159
-93 l-124 -73 -728 -1 c-400 0 -725 3 -723 7 2 3 41 28 87 54 45 27 84 52 85
56 2 4 8 8 12 8 5 0 111 61 236 135 124 74 230 135 235 135 5 0 9 5 9 10 0 6
4 10 10 10 5 0 40 19 77 42 38 22 82 49 98 58 49 28 408 241 435 258 42 27 83
51 128 74 23 12 42 26 42 30 0 4 4 8 9 8 7 0 355 202 431 250 82 51 227 134
233 132 4 -1 7 2 7 7 0 5 24 22 54 37 l53 27 99 -59 c54 -32 101 -62 102 -66
2 -5 8 -8 13 -8 4 0 41 -20 81 -44 l73 -45 50 28 c28 16 73 43 100 60 28 17
62 37 78 43 15 7 27 15 27 19 0 6 -62 49 -90 62 -8 4 -27 15 -42 25 -14 9 -48
30 -75 46 -26 16 -66 41 -88 55 -22 14 -42 26 -45 26 -3 0 -16 8 -30 17 -14 9
-77 47 -140 85 l-115 69 -86 -51z"/>
<path d="M10795 4732 c-27 -5 -65 -41 -76 -71 -7 -17 -13 -758 -9 -1203 l0
-28 115 0 c103 0 115 2 116 18 0 9 1 212 1 450 0 237 2 432 4 432 2 0 39 -37
81 -81 43 -45 103 -108 133 -139 300 -313 412 -430 450 -470 143 -152 195
-202 219 -214 32 -17 83 -14 114 7 53 35 53 28 52 679 l0 603 -62 1 c-34 1
-68 4 -77 7 -9 4 -16 3 -16 -1 0 -4 -18 -6 -39 -6 l-39 2 0 -422 c0 -231 -1
-434 -1 -451 -1 -33 14 -47 -376 360 -99 103 -208 218 -243 254 -122 127 -229
236 -249 254 -22 19 -63 27 -98 19z"/>
<path d="M308 4724 c-4 -4 -56 -7 -115 -7 -92 0 -112 -3 -137 -20 -53 -38 -53
-37 -52 -632 2 -607 1 -594 65 -621 50 -21 739 -19 821 2 211 54 366 226 395
439 7 54 8 357 1 390 -3 11 -9 35 -15 53 -5 17 -8 32 -6 32 2 0 -12 32 -32 71
-33 66 -120 166 -168 196 -41 25 -124 62 -166 73 -54 15 -185 22 -367 19 -51
-1 -95 1 -98 4 -3 3 -11 4 -17 1 -25 -9 -97 -10 -99 -2 -2 5 -7 6 -10 2z m540
-253 c80 -23 156 -88 183 -158 21 -53 23 -79 23 -248 1 -142 -2 -178 -17 -215
-37 -89 -98 -145 -188 -171 -53 -15 -597 -20 -606 -5 -5 7 -8 684 -4 791 1 20
7 20 284 19 188 0 296 -5 325 -13z"/>
<path d="M1787 4723 c-4 -3 -46 -6 -94 -7 -106 -2 -135 -13 -157 -60 -15 -32
-17 -89 -17 -578 0 -299 1 -567 1 -595 l0 -53 115 0 c85 0 115 3 116 13 0 6 2
244 2 527 l2 515 394 0 c281 0 398 -3 410 -11 22 -16 19 -222 -3 -276 -20 -46
-73 -87 -136 -105 -8 -3 -141 -5 -294 -6 l-279 -2 0 -115 -1 -115 82 -2 c87
-3 96 -6 160 -64 20 -19 53 -47 72 -63 37 -30 152 -130 180 -156 9 -8 45 -40
81 -70 35 -30 66 -58 67 -62 5 -10 362 -10 362 0 0 4 -13 17 -28 29 -15 12
-41 35 -59 50 -17 15 -110 96 -206 178 -96 83 -173 152 -172 154 2 2 19 5 37
6 177 18 332 146 373 310 14 53 13 295 0 346 -16 59 -46 110 -87 144 -56 47
-94 57 -227 61 -67 1 -125 5 -128 8 -3 2 -10 3 -16 0 -24 -9 -97 -10 -97 -2 0
5 -5 6 -12 2 -13 -8 -186 -10 -194 -2 -3 3 -19 3 -37 -1 -38 -8 -181 -6 -194
2 -6 4 -13 4 -16 0z"/>
<path d="M3187 4723 c-4 -3 -52 -6 -108 -6 l-100 1 4 -267 c2 -146 6 -273 9
-281 8 -23 28 -71 45 -108 16 -34 98 -122 113 -122 5 0 15 -6 22 -13 14 -13
98 -52 137 -63 13 -3 58 -8 100 -9 42 -2 81 -4 87 -4 7 -1 11 -66 10 -208 l0
-208 117 -3 c116 -3 117 -2 118 20 0 13 1 107 1 211 0 184 0 187 21 188 12 1
47 2 77 4 78 3 128 14 180 38 87 40 163 110 199 182 44 91 49 129 48 391 l-2
249 -112 2 c-62 2 -114 -1 -114 -5 -1 -4 -2 -115 -4 -247 -2 -255 -3 -264 -53
-318 -46 -49 -100 -57 -366 -57 -133 0 -255 4 -273 9 -44 13 -100 66 -115 110
-8 24 -12 113 -13 269 -1 215 -7 267 -28 245z"/>
<path d="M5587 4724 c-3 -3 -70 -7 -149 -8 -199 -3 -263 -29 -332 -135 -58
-88 -60 -98 -60 -521 l1 -385 25 -55 c42 -89 96 -137 193 -170 52 -18 89 -19
500 -20 245 0 445 3 446 7 7 52 3 223 -5 224 -6 1 -205 2 -443 3 l-432 1 -24
23 c-13 12 -24 28 -25 35 -1 6 -3 167 -5 355 l-2 344 26 31 26 31 439 2 c242
1 441 2 444 3 3 0 5 52 5 115 l0 114 -85 0 c-47 0 -89 1 -95 2 -5 1 -14 1 -20
0 -22 -5 -405 -1 -413 4 -5 3 -12 3 -15 0z"/>
<path d="M8257 4724 c-3 -4 -91 -6 -194 -6 -147 0 -195 -4 -221 -15 -63 -30
-63 -26 -63 -531 -1 -448 1 -486 24 -547 13 -35 19 -44 72 -99 90 -93 108 -96
631 -96 l442 0 1 115 c0 63 -3 116 -7 116 -4 1 -198 2 -432 3 -234 1 -435 5
-448 10 -48 16 -50 34 -48 436 l1 375 465 0 465 0 3 115 2 116 -42 1 c-24 1
-52 2 -63 3 -20 0 -347 1 -375 1 -120 -4 -189 -3 -197 2 -6 4 -13 4 -16 1z"/>
<path d="M10177 4724 c-3 -3 -119 -7 -259 -8 -220 -3 -261 -6 -318 -24 -217
-67 -374 -229 -430 -444 -16 -65 -19 -115 -19 -445 l-1 -373 115 0 c85 0 115
3 116 13 1 6 2 77 3 157 l1 145 410 0 410 0 0 -155 0 -155 116 -3 116 -3 -1
610 c-1 594 -1 609 -21 631 -35 38 -70 50 -142 48 -38 -1 -74 1 -80 5 -5 3
-13 4 -16 1z m23 -245 c4 -6 5 -441 1 -486 -1 -10 -95 -12 -409 -13 l-409 0 2
88 c2 106 10 142 43 207 49 98 143 167 270 197 55 14 493 19 502 7z"/>
<path d="M6437 4702 c-3 -10 -4 -280 -3 -602 2 -451 5 -590 15 -608 7 -13 27
-32 44 -42 31 -19 55 -20 579 -20 l546 0 0 118 0 117 -474 0 -474 0 0 526 0
527 -115 0 c-98 0 -115 -2 -118 -16z"/>
<path d="M8109 4190 c-5 -27 -4 -217 2 -225 8 -11 714 -13 725 -2 13 13 10
219 -2 224 -17 6 -724 9 -725 3z"/>
<path d="M8012 3030 c-18 -11 -32 -29 -35 -47 -3 -15 -5 -199 -4 -408 l2 -380
64 -2 c35 -2 69 1 75 6 8 7 11 98 11 296 l0 287 130 -135 c71 -74 199 -208
284 -296 85 -89 164 -164 177 -167 32 -8 62 3 80 30 12 20 15 80 15 387 0 200
0 379 0 397 l-1 32 -75 0 c-65 0 -75 -2 -75 -17 0 -10 0 -141 0 -290 0 -150
-2 -273 -6 -273 -3 0 -21 16 -40 36 -18 21 -101 108 -184 195 -374 391 -364
382 -418 349z"/>
<path d="M1762 3025 c-4 -5 -7 -161 -7 -345 l0 -335 -165 1 c-146 1 -171 4
-215 23 -64 29 -102 64 -130 124 -24 50 -24 52 -25 420 l0 117 -75 0 c-65 0
-75 -2 -75 -17 -5 -185 1 -464 10 -506 29 -119 97 -210 203 -266 31 -17 57
-29 57 -27 0 2 19 -2 43 -8 55 -17 452 -19 482 -4 43 24 43 25 42 437 l-2 394
-68 1 c-38 0 -72 -3 -75 -9z"/>
<path d="M2420 3029 c-100 -7 -158 -40 -196 -110 -17 -31 -19 -64 -21 -359 -1
-179 0 -336 3 -349 4 -20 10 -23 39 -19 19 2 35 0 35 -5 0 -4 6 -5 13 0 6 4
19 6 29 5 9 -2 20 3 24 10 5 7 9 156 9 331 0 297 2 320 18 332 26 19 398 18
444 0 48 -20 72 -75 70 -162 -5 -137 -37 -154 -283 -153 -96 1 -179 -1 -182
-5 -9 -9 -10 -128 -1 -140 7 -9 352 -11 389 -2 124 29 214 115 225 214 2 21 4
40 5 43 12 42 -7 174 -32 223 -38 76 -112 131 -189 144 -46 7 -314 9 -399 2z"/>
<path d="M3393 3030 c-77 -6 -103 -25 -104 -77 -6 -209 0 -596 10 -624 15 -45
57 -91 106 -114 37 -18 65 -20 343 -22 l303 -1 -3 76 -3 77 -287 0 c-213 0
-291 4 -300 13 -17 17 -20 57 -17 219 1 28 -2 56 -6 62 -3 6 -3 11 2 11 9 0 8
103 -1 126 -3 8 -1 14 4 14 5 0 5 12 1 28 -17 62 -30 59 304 58 l305 -1 0 78
0 77 -112 1 c-62 0 -196 1 -298 2 -102 1 -213 0 -247 -3z"/>
<path d="M6140 3030 c-109 -8 -154 -34 -196 -115 -13 -25 -21 -56 -20 -83 0
-23 -2 -42 -6 -42 -4 0 -3 -13 2 -30 5 -17 5 -32 0 -35 -5 -3 -6 -15 0 -29 4
-12 4 -29 0 -36 -5 -8 -6 -18 -3 -23 3 -5 5 -37 4 -71 -1 -33 -2 -67 -2 -73 1
-32 1 -64 0 -75 -2 -26 13 -94 26 -118 19 -37 65 -75 110 -92 33 -13 93 -16
320 -16 154 -1 287 1 295 3 12 4 15 20 14 70 -1 36 -2 68 -3 73 0 4 -126 7
-279 7 -152 -1 -284 1 -293 3 -9 2 -21 13 -26 25 -16 35 -11 473 5 489 10 10
79 13 298 14 157 1 288 5 291 8 4 4 7 38 7 76 1 63 -1 70 -19 71 -120 4 -467
3 -525 -1z"/>
<path d="M7015 3029 c-72 -12 -72 -11 -70 -367 1 -301 2 -319 22 -357 25 -48
45 -66 100 -92 38 -19 62 -20 340 -19 l298 1 1 73 c0 39 -2 73 -5 73 -3 1
-133 2 -288 3 -253 1 -284 3 -300 18 -15 16 -17 45 -18 255 -1 131 1 243 3
250 3 9 73 12 270 12 147 -1 283 0 303 0 l35 1 0 75 c0 69 -2 75 -20 76 -136
4 -642 3 -671 -2z"/>
<path d="M10200 3032 c-64 -5 -81 -12 -93 -42 -9 -20 -12 -115 -12 -337 1
-337 3 -343 63 -401 61 -57 77 -59 401 -60 l298 -1 1 62 c2 101 29 92 -289 92
-217 0 -286 3 -300 13 -18 12 -19 29 -19 267 l0 253 302 0 303 -1 2 77 c2 42
-1 76 -5 77 -26 2 -624 3 -652 1z"/>
<path d="M11247 3033 c-1 0 -20 -3 -42 -4 -82 -7 -82 -7 -79 -444 1 -209 2
-384 3 -388 0 -4 34 -7 74 -6 l74 2 0 341 0 341 264 0 264 0 0 -92 c0 -77 -3
-95 -20 -113 -41 -46 -63 -50 -260 -50 -102 0 -185 -3 -186 -7 -4 -41 -1 -135
5 -140 4 -4 29 -8 55 -8 44 0 55 -5 107 -50 31 -27 73 -63 92 -80 20 -16 43
-37 51 -45 9 -8 39 -34 66 -56 l50 -42 108 0 c59 0 107 3 107 7 0 11 -15 26
-70 71 -30 25 -64 54 -76 65 -23 22 -62 55 -112 98 -22 17 -29 28 -20 31 24 8
63 15 68 13 20 -8 159 101 160 125 0 4 5 19 12 35 19 46 20 54 21 155 1 123
-24 179 -93 215 -43 22 -56 23 -333 25 -159 2 -289 2 -290 1z"/>
<path d="M159 3016 c-54 -19 -103 -61 -125 -106 -10 -22 -22 -40 -25 -40 -4 0
-6 -37 -5 -82 3 -136 60 -213 181 -245 11 -3 114 -6 230 -7 255 -2 265 -6 270
-104 2 -37 -31 -81 -62 -83 -10 -1 -148 -3 -308 -4 -160 -1 -294 -3 -300 -4
-8 -1 -12 -99 -6 -143 1 -4 148 -6 329 -5 l327 2 50 29 c59 35 68 45 99 109
47 96 21 225 -58 295 -57 50 -115 61 -336 62 -239 1 -216 -1 -240 25 -39 42
-29 129 18 154 9 5 138 8 290 7 149 0 272 1 273 4 0 3 1 37 2 75 l1 70 -285 2
c-211 2 -293 -1 -320 -11z"/>
<path d="M4348 3016 c-10 -7 -21 -24 -26 -37 -4 -13 -8 -195 -7 -404 l1 -380
74 0 75 0 3 341 2 342 256 0 c187 0 258 -3 267 -12 15 -16 14 -136 -2 -174 -7
-15 -24 -36 -39 -47 -24 -18 -45 -20 -225 -23 l-198 -3 3 -77 3 -76 55 -1 c41
0 61 -6 76 -20 18 -18 46 -42 185 -161 25 -22 58 -52 74 -66 28 -26 32 -27
142 -26 62 0 113 4 113 9 0 4 -8 14 -19 21 -18 13 -115 94 -135 113 -6 6 -41
36 -78 67 -36 31 -64 59 -60 62 3 3 17 6 31 6 39 0 124 43 160 81 55 58 74
112 76 219 1 52 -3 112 -8 133 -10 40 -66 103 -105 118 -13 5 -170 9 -350 9
-252 -1 -331 -4 -344 -14z"/>
<path d="M9044 2955 c-1 -48 3 -75 10 -76 6 0 81 -1 166 -2 l155 -2 2 -335 c1
-184 2 -338 3 -341 0 -13 150 -8 151 5 0 6 1 160 2 341 l2 330 125 2 c69 1
143 2 166 2 l41 1 2 75 2 75 -413 0 -413 0 -1 -75z"/>
<path d="M3500 2612 l0 -77 240 0 240 0 1 37 c0 21 1 55 2 76 l0 37 -241 2
-242 2 0 -77z"/>
<path d="M7159 2682 c-6 -44 -2 -135 6 -141 5 -4 114 -7 240 -7 l230 1 1 77 1
76 -238 0 c-132 0 -239 -2 -240 -6z"/>
<path d="M10310 2612 l0 -77 238 0 237 0 3 77 3 76 -241 0 -240 1 0 -77z"/>
</g>
</svg>
